<svg width="36" height="36" viewBox="0 0 36 36" fill="none" xmlns="http://www.w3.org/2000/svg">
<rect x="0.5" y="0.5" width="35" height="35" rx="11.5" stroke="#DBDBDB"/>
<path d="M18.4883 9C19.8554 9 21.1329 9.37558 22.2167 10.0288C21.8938 10.3659 21.6441 10.7707 21.4922 11.2189C20.6209 10.6893 19.5912 10.3842 18.4883 10.3842C15.3484 10.3842 12.8144 12.8521 12.814 15.9212V19.9905L11.5429 22.8459H25.4419L24.1627 19.9914L24.1628 15.9331L24.1592 15.7252C24.1557 15.6252 24.1495 15.5259 24.1407 15.4274C24.3022 15.451 24.4675 15.4633 24.6357 15.4633C24.955 15.4633 25.2637 15.4192 25.5559 15.3368C25.566 15.4536 25.5731 15.5712 25.5773 15.6896L25.5813 15.9212V19.702L26.8864 22.6145C26.9517 22.7602 26.9855 22.9175 26.9855 23.0766C26.9855 23.7137 26.4561 24.2301 25.8033 24.2301L21.3255 24.2315C21.3255 25.7605 20.0552 27 18.4883 27C16.9774 27 15.7423 25.8474 15.656 24.3942L15.6507 24.2294L11.1825 24.2301C11.0204 24.2301 10.8601 24.1976 10.7115 24.1347C10.1127 23.8808 9.83806 23.2014 10.0982 22.617L11.3954 19.7029V15.9211C11.3959 12.087 14.5655 9 18.4883 9ZM19.9065 24.2294L17.0697 24.2315C17.0697 24.996 17.7049 25.6158 18.4883 25.6158C19.2257 25.6158 19.8317 25.0668 19.9004 24.3648L19.9065 24.2294ZM22.3089 11.8214C22.3989 11.3349 22.6451 10.9013 22.9951 10.5721C23.4203 10.1722 23.9986 9.92633 24.6357 9.92633C25.9415 9.92633 27 10.9592 27 12.2334C27 13.2422 26.3364 14.0998 25.4119 14.4132C25.1688 14.4957 24.9076 14.5405 24.6357 14.5405C24.4011 14.5405 24.1745 14.5071 23.9606 14.445C22.9837 14.1615 22.2714 13.2786 22.2714 12.2334C22.2714 12.0928 22.2843 11.9551 22.3089 11.8214Z" fill="black"/>
<path d="M22.9951 10.5721C22.6451 10.9013 22.3989 11.3349 22.3089 11.8214C22.2843 11.9551 22.2714 12.0928 22.2714 12.2334C22.2714 13.2786 22.9837 14.1615 23.9606 14.445C24.1745 14.5071 24.4011 14.5405 24.6357 14.5405C24.9076 14.5405 25.1688 14.4957 25.4119 14.4132C26.3364 14.0998 27 13.2422 27 12.2334C27 10.9592 25.9415 9.92633 24.6357 9.92633C23.9986 9.92633 23.4203 10.1722 22.9951 10.5721Z" fill="black"/>
</svg>
