<svg width="29" height="29" viewBox="0 0 29 29" fill="none" xmlns="http://www.w3.org/2000/svg">
<rect width="29" height="29" rx="5" fill="#F5F3F1"/>
<path fill-rule="evenodd" clip-rule="evenodd" d="M10.8932 10.8566C10.8932 8.72664 12.6199 7 14.7498 7C16.8797 7 18.6063 8.72664 18.6063 10.8566C18.6063 12.9865 16.8797 14.7131 14.7498 14.7131C12.6199 14.7131 10.8932 12.9865 10.8932 10.8566ZM14.7499 15.6575C17.1673 15.6575 19.5361 16.3349 21.6005 17.5877C21.7598 17.6843 21.9528 17.8011 22.1146 17.987C22.2514 18.144 22.3635 18.3436 22.4265 18.5422C22.5011 18.7776 22.5004 19.017 22.4998 19.2172L22.4997 20.4634C22.4998 20.6731 22.4998 20.8727 22.486 21.0408C22.4711 21.2242 22.4361 21.4345 22.329 21.6447C22.1788 21.9395 21.9392 22.1791 21.6444 22.3293C21.4342 22.4364 21.2239 22.4713 21.0405 22.4863C20.8724 22.5 20.6728 22.5 20.4632 22.5H9.03678C8.8271 22.5 8.62755 22.5 8.4594 22.4863C8.27604 22.4713 8.06571 22.4364 7.8555 22.3293C7.56075 22.1791 7.32112 21.9395 7.17094 21.6447C7.06383 21.4345 7.02888 21.2242 7.0139 21.0408C7.00016 20.8726 7.00018 20.6731 7.00021 20.4634L7.00011 19.2171C6.99952 19.0168 6.99882 18.7775 7.07347 18.5421C7.13643 18.3435 7.24854 18.1439 7.38533 17.9868C7.54715 17.801 7.74013 17.6841 7.8995 17.5876C9.96387 16.3348 12.3326 15.6575 14.7499 15.6575Z" fill="#0A0A0A"/>
</svg>
