<svg width="29" height="29" viewBox="0 0 29 29" fill="none" xmlns="http://www.w3.org/2000/svg">
<rect width="29" height="29" rx="5" fill="#F5F3F1"/>
<path fill-rule="evenodd" clip-rule="evenodd" d="M17.5684 7C17.7338 7.00016 17.8681 7.13431 17.8682 7.2998V10.7266H21.4795C22.0317 10.7266 22.4793 11.1744 22.4795 11.7266V20.3193C22.4795 20.8716 22.0318 21.3193 21.4795 21.3193H7C6.44784 21.3192 6 20.8715 6 20.3193V11.7266C6.00015 11.1745 6.44793 10.7267 7 10.7266H10.6094V7.2998C10.6095 7.13424 10.7436 7.00005 10.9092 7H17.5684ZM12.2822 8.17676C12.1166 8.17681 11.9825 8.311 11.9824 8.47656V10.7266H16.4941V8.47656C16.494 8.31107 16.3598 8.17692 16.1943 8.17676H12.2822Z" fill="#0A0A0A"/>
</svg>
