<svg width="24" height="24" viewBox="0 0 24 24" fill="none" xmlns="http://www.w3.org/2000/svg">
<path fill-rule="evenodd" clip-rule="evenodd" d="M16.1292 18.1295L18.7635 20.7638L20.0363 19.491L3.77287 3.22754L2.50008 4.50033L5.286 7.28626C3.75916 8.40074 2.5198 9.88553 1.70004 11.6085C1.58208 11.8564 1.58208 12.1442 1.70004 12.3921C3.53093 16.2403 7.45486 18.9003 12.0001 18.9003C13.4564 18.9003 14.8489 18.6272 16.1292 18.1295ZM13.5709 15.5711L12.0979 14.0981C12.0655 14.0996 12.0328 14.1004 12.0001 14.1004C10.8403 14.1004 9.90007 13.1602 9.90007 12.0004C9.90007 11.9676 9.90082 11.935 9.90231 11.9026L8.42932 10.4296C8.21761 10.9101 8.10007 11.4415 8.10007 12.0004C8.10007 14.1543 9.84616 15.9004 12.0001 15.9004C12.5589 15.9004 13.0903 15.7828 13.5709 15.5711ZM15.8227 12.7773L19.3012 16.2558C20.5597 15.2053 21.5881 13.8885 22.3001 12.3921C22.4181 12.1442 22.4181 11.8564 22.3001 11.6085C20.4692 7.76032 16.5453 5.10034 12.0001 5.10034C10.8331 5.10034 9.70706 5.27569 8.6469 5.60148L11.2232 8.17775C11.4742 8.127 11.734 8.10037 12.0001 8.10037C14.154 8.10037 15.9001 9.84646 15.9001 12.0004C15.9001 12.2664 15.8734 12.5262 15.8227 12.7773Z" fill="#E3E3E3"/>
</svg>
