<svg width="12" height="12" viewBox="0 0 12 12" fill="none" xmlns="http://www.w3.org/2000/svg">
<path fill-rule="evenodd" clip-rule="evenodd" d="M5.77499 1.05C3.16545 1.05 1.05 3.16545 1.05 5.775C1.05 8.38455 3.16545 10.5 5.77499 10.5C8.38454 10.5 10.5 8.38455 10.5 5.775C10.5 3.16545 8.38454 1.05 5.77499 1.05ZM0 5.775C0 2.58556 2.58555 0 5.77499 0C8.96444 0 11.55 2.58556 11.55 5.775C11.55 8.96444 8.96444 11.55 5.77499 11.55C2.58555 11.55 0 8.96444 0 5.775Z" fill="#F42222"/>
<path d="M6.35833 8.25417C6.35833 8.57633 6.09716 8.8375 5.77499 8.8375C5.45283 8.8375 5.19166 8.57633 5.19166 8.25417C5.19166 7.932 5.45283 7.67083 5.77499 7.67083C6.09716 7.67083 6.35833 7.932 6.35833 8.25417Z" fill="#F42222"/>
<path fill-rule="evenodd" clip-rule="evenodd" d="M5.25 6.79583V2.7125H6.3V6.79583H5.25Z" fill="#F42222"/>
</svg>
