<svg width="71" height="71" viewBox="0 0 71 71" fill="none" xmlns="http://www.w3.org/2000/svg">
<g filter="url(#filter0_d_251_2607)">
<rect x="1" width="65" height="65" rx="16" fill="#0A0A0A" shape-rendering="crispEdges"/>
<path d="M40.5683 25.4261C40.8751 25.7329 40.9008 26.2145 40.6451 26.5505L40.5685 26.6383L34.7102 32.4985L40.5709 38.3592C40.9056 38.6939 40.9055 39.2366 40.5708 39.5713C40.2639 39.8782 39.7823 39.9038 39.4464 39.6482L39.3586 39.5714L33.498 33.7107L27.6412 39.5708C27.3065 39.9056 26.7637 39.9059 26.4291 39.5712C26.1222 39.2644 26.0965 38.7828 26.3522 38.4468L26.4289 38.359L32.2859 32.4987L26.4286 26.6413C26.0939 26.3066 26.0939 25.7639 26.4286 25.4292C26.7355 25.1223 27.2171 25.0967 27.5531 25.3524L27.6408 25.4291L33.4982 31.2865L39.3562 25.4265C39.6909 25.0917 40.2336 25.0914 40.5683 25.4261Z" fill="white"/>
</g>
<defs>
<filter id="filter0_d_251_2607" x="0" y="0" width="71" height="71" filterUnits="userSpaceOnUse" color-interpolation-filters="sRGB">
<feFlood flood-opacity="0" result="BackgroundImageFix"/>
<feColorMatrix in="SourceAlpha" type="matrix" values="0 0 0 0 0 0 0 0 0 0 0 0 0 0 0 0 0 0 127 0" result="hardAlpha"/>
<feOffset dx="2" dy="3"/>
<feGaussianBlur stdDeviation="1.5"/>
<feComposite in2="hardAlpha" operator="out"/>
<feColorMatrix type="matrix" values="0 0 0 0 0 0 0 0 0 0 0 0 0 0 0 0 0 0 0.1 0"/>
<feBlend mode="normal" in2="BackgroundImageFix" result="effect1_dropShadow_251_2607"/>
<feBlend mode="normal" in="SourceGraphic" in2="effect1_dropShadow_251_2607" result="shape"/>
</filter>
</defs>
</svg>
