<svg width="14" height="14" viewBox="0 0 14 14" fill="none" xmlns="http://www.w3.org/2000/svg">
<path d="M6.66771 0C10.3502 0 13.3354 2.98523 13.3354 6.6677C13.3354 10.3502 10.3502 13.3354 6.66771 13.3354C2.98523 13.3354 0 10.3502 0 6.6677C0 2.98523 2.98523 0 6.66771 0ZM6.66771 1C3.53751 1 1 3.53751 1 6.6677C1 9.7979 3.53751 12.3354 6.66771 12.3354C9.79791 12.3354 12.3354 9.7979 12.3354 6.6677C12.3354 3.53751 9.79791 1 6.66771 1ZM6.66524 5.66703C6.91837 5.6669 7.12771 5.85483 7.16097 6.0989L7.16557 6.1667L7.16797 9.83443C7.16817 10.1106 6.94444 10.3346 6.66831 10.3348C6.41517 10.335 6.20584 10.147 6.17257 9.90297L6.16797 9.8351L6.16557 6.16737C6.16544 5.89123 6.38911 5.66723 6.66524 5.66703ZM6.66797 3.33521C7.03571 3.33521 7.33377 3.63329 7.33377 4.00099C7.33377 4.36868 7.03571 4.66676 6.66797 4.66676C6.30031 4.66676 6.00224 4.36868 6.00224 4.00099C6.00224 3.63329 6.30031 3.33521 6.66797 3.33521Z" fill="#B0B0B0"/>
</svg>
