<svg width="36" height="36" viewBox="0 0 36 36" fill="none" xmlns="http://www.w3.org/2000/svg">
<rect x="0.5" y="0.5" width="35" height="35" rx="11.5" stroke="#DBDBDB"/>
<path d="M10.1382 22.7583H25.8625C26.2147 22.7583 26.5 23.0363 26.5 23.3792C26.5 23.6935 26.2602 23.9532 25.9491 23.9943L25.8625 24H10.1382C9.78613 24 9.50073 23.722 9.50073 23.3792C9.50073 23.0649 9.74055 22.8051 10.0517 22.764L10.1382 22.7583ZM10.1382 17.3803H25.8625C26.2147 17.3803 26.5 17.6583 26.5 18.0011C26.5 18.3155 26.2602 18.5752 25.9491 18.6163L25.8625 18.622H10.1382C9.78613 18.622 9.50073 18.344 9.50073 18.0011C9.50073 17.6868 9.74055 17.4271 10.0517 17.3859L10.1382 17.3803ZM10.1375 12H25.8618C26.2139 12 26.4993 12.278 26.4993 12.6208C26.4993 12.9351 26.2595 13.1949 25.9484 13.236L25.8618 13.2417H10.1375C9.7854 13.2417 9.5 12.9637 9.5 12.6208C9.5 12.3065 9.73982 12.0468 10.051 12.0057L10.1375 12Z" fill="black"/>
</svg>
