<svg width="67" height="67" viewBox="0 0 67 67" fill="none" xmlns="http://www.w3.org/2000/svg">
<g filter="url(#filter0_d_173_1403)">
<rect x="2" y="2" width="59" height="59" rx="29.5" fill="#FF4000" shape-rendering="crispEdges"/>
<path d="M37 31.5C40.0376 31.5 42.5 33.9624 42.5 37C42.5 40.0376 40.0376 42.5 37 42.5C33.9624 42.5 31.5 40.0376 31.5 37C31.5 33.9624 33.9624 31.5 37 31.5ZM40.5 28L40.5012 31.5226C39.4907 30.8753 38.2892 30.5 37 30.5C33.4101 30.5 30.5 33.4101 30.5 37C30.5 38.2892 30.8753 39.4907 31.5226 40.5012L25.75 40.5C23.9551 40.5 22.5 39.0449 22.5 37.25V28H40.5ZM37 33.5L36.9101 33.5081C36.706 33.5451 36.5451 33.706 36.5081 33.9101L36.5 34V36.5H34L33.9101 36.5081C33.706 36.5451 33.5451 36.706 33.5081 36.9101L33.5 37L33.5081 37.0899C33.5451 37.294 33.706 37.4549 33.9101 37.4919L34 37.5H36.5V40L36.5081 40.0899C36.5451 40.294 36.706 40.4549 36.9101 40.4919L37 40.5L37.0899 40.4919C37.294 40.4549 37.4549 40.294 37.4919 40.0899L37.5 40V37.5H40L40.0899 37.4919C40.294 37.4549 40.4549 37.294 40.4919 37.0899L40.5 37L40.4919 36.9101C40.4549 36.706 40.294 36.5451 40.0899 36.5081L40 36.5H37.5V34L37.4919 33.9101C37.4549 33.706 37.294 33.5451 37.0899 33.5081L37 33.5ZM37.25 22.5C39.0449 22.5 40.5 23.9551 40.5 25.75V26.5H22.5V25.75C22.5 23.9551 23.9551 22.5 25.75 22.5H37.25Z" fill="white"/>
</g>
<defs>
<filter id="filter0_d_173_1403" x="0" y="0" width="67" height="67" filterUnits="userSpaceOnUse" color-interpolation-filters="sRGB">
<feFlood flood-opacity="0" result="BackgroundImageFix"/>
<feColorMatrix in="SourceAlpha" type="matrix" values="0 0 0 0 0 0 0 0 0 0 0 0 0 0 0 0 0 0 127 0" result="hardAlpha"/>
<feMorphology radius="1" operator="dilate" in="SourceAlpha" result="effect1_dropShadow_173_1403"/>
<feOffset dx="2" dy="2"/>
<feGaussianBlur stdDeviation="1.5"/>
<feComposite in2="hardAlpha" operator="out"/>
<feColorMatrix type="matrix" values="0 0 0 0 0 0 0 0 0 0 0 0 0 0 0 0 0 0 0.12 0"/>
<feBlend mode="normal" in2="BackgroundImageFix" result="effect1_dropShadow_173_1403"/>
<feBlend mode="normal" in="SourceGraphic" in2="effect1_dropShadow_173_1403" result="shape"/>
</filter>
</defs>
</svg>
