<svg width="24" height="24" viewBox="0 0 24 24" fill="none" xmlns="http://www.w3.org/2000/svg">
<path fill-rule="evenodd" clip-rule="evenodd" d="M22.2998 12.3914C22.4177 12.1435 22.4177 11.8557 22.2998 11.6078C20.4689 7.75959 16.545 5.09961 11.9998 5.09961C7.45456 5.09961 3.53062 7.75959 1.69973 11.6078C1.58178 11.8557 1.58178 12.1435 1.69973 12.3914C3.53062 16.2396 7.45456 18.8996 11.9998 18.8996C16.545 18.8996 20.4689 16.2396 22.2998 12.3914ZM9.89976 11.9996C9.89976 10.8398 10.84 9.89963 11.9998 9.89963C13.1596 9.89963 14.0998 10.8398 14.0998 11.9996C14.0998 13.1594 13.1596 14.0996 11.9998 14.0996C10.84 14.0996 9.89976 13.1594 9.89976 11.9996ZM11.9998 8.09963C9.84585 8.09963 8.09977 9.84572 8.09977 11.9996C8.09977 14.1535 9.84585 15.8996 11.9998 15.8996C14.1537 15.8996 15.8998 14.1535 15.8998 11.9996C15.8998 9.84572 14.1537 8.09963 11.9998 8.09963Z" fill="#E3E3E3"/>
</svg>
